<svg xmlns="http://www.w3.org/2000/svg" viewBox="0 0 600 600"><defs><style>.cls-1{fill:#689f38;}.cls-2{fill:#fff;}</style></defs><title>logo@2021</title><g id="Layer_2" data-name="Layer 2"><g id="Layer_1-2" data-name="Layer 1"><rect class="cls-1" width="600" height="600" rx="9.56" ry="9.56"/><path class="cls-2" d="M424.21,286C440,249,434,208.7,399.31,179l-78-66.71a13.84,13.84,0,0,0-17.44,0l-95,81.32C153,242.5,153.68,321,211,369l14,12c-16,29.21-9.88,65.14,18.29,89.23l20.37,17.43a13.85,13.85,0,0,0,17.43,0l111-94.93C426,363.72,440.69,324.25,424.21,286Zm-49.53,91.8L272.4,465.29l-11.66-10c-26.34-22.52-26.34-59.17,0-81.69l97-82.94c24.28-20.76,24.41-54.35.07-75-13.86-11.77-36.49-31-36.49-31a13.85,13.85,0,0,0-17.38,0l-61.3,52c-28.33,24-28.44,63.12-.22,87.25l20.82,17.81c-22.17,19-21.28,18.1-24.46,21.25L228.37,354c-23.33-19.53-36.18-45.66-36.18-73.59,0-27.09,12.2-52.67,34.26-72l86.16-73.78L381.88,194c38,32.51,34.65,82.53-3.36,115l-101,85.77a9.5,9.5,0,0,0,0,14.91,13.85,13.85,0,0,0,17.43,0l101-85.77a111.59,111.59,0,0,0,10.63-10.42C409.61,338.08,395.89,359.68,374.68,377.82Zm-51.36-87.54L307.58,276.8l12.91-11a9.5,9.5,0,0,0,0-14.91,13.84,13.84,0,0,0-17.43,0l-14.56,12.46c-8.72,7.46-8.73,19.53,0,27l17.41,14.89-25.24,21.58L259.83,309c-18.55-15.86-18.49-41.56.15-57.37L312.58,207c7.86,6.69,19.45,16.56,27.83,23.68,14.63,12.42,14.5,32.64-.13,45.15Z"/></g></g></svg>