<?xml version="1.0" standalone="no"?><svg xmlns="http://www.w3.org/2000/svg" viewBox="0 0 1440 320"><path fill="#0099ff" fill-opacity="1" d="M0,32L12.6,53.3C25.3,75,51,117,76,144C101.1,171,126,181,152,154.7C176.8,128,202,64,227,42.7C252.6,21,278,43,303,74.7C328.4,107,354,149,379,165.3C404.2,181,429,171,455,186.7C480,203,505,245,531,234.7C555.8,224,581,160,606,117.3C631.6,75,657,53,682,74.7C707.4,96,733,160,758,192C783.2,224,808,224,834,192C858.9,160,884,96,909,74.7C934.7,53,960,75,985,106.7C1010.5,139,1036,181,1061,186.7C1086.3,192,1112,160,1137,133.3C1162.1,107,1187,85,1213,106.7C1237.9,128,1263,192,1288,202.7C1313.7,213,1339,171,1364,128C1389.5,85,1415,43,1427,21.3L1440,0L1440,320L1427.4,320C1414.7,320,1389,320,1364,320C1338.9,320,1314,320,1288,320C1263.2,320,1238,320,1213,320C1187.4,320,1162,320,1137,320C1111.6,320,1086,320,1061,320C1035.8,320,1011,320,985,320C960,320,935,320,909,320C884.2,320,859,320,834,320C808.4,320,783,320,758,320C732.6,320,707,320,682,320C656.8,320,632,320,606,320C581.1,320,556,320,531,320C505.3,320,480,320,455,320C429.5,320,404,320,379,320C353.7,320,328,320,303,320C277.9,320,253,320,227,320C202.1,320,177,320,152,320C126.3,320,101,320,76,320C50.5,320,25,320,13,320L0,320Z"></path></svg>